<?xml version="1.0" standalone="no"?><!-- Generator: Gravit.io -->
<svg xmlns="http://www.w3.org/2000/svg" xmlns:xlink="http://www.w3.org/1999/xlink" style="isolation:isolate" viewBox="0 0 2000 2000" width="2000" height="2000">
    <defs>
        <clipPath id="_clipPath_5Aw3UMLufU4lmuvBjFYbHPzXB6TZzPRh"><rect width="2000" height="2000"/></clipPath>
    </defs>
    <g clip-path="url(#_clipPath_5Aw3UMLufU4lmuvBjFYbHPzXB6TZzPRh)">
        <path id="logo_be" d=" M 102.093 80.248 C 102.041 80.387 102.021 109.435 102.049 144.8 L 102.1 209.1 L 111.6 209.1 L 121.1 209.1 L 121.153 202.35 C 121.193 197.148 121.262 195.601 121.453 195.603 C 121.589 195.605 122.69 196.565 123.9 197.736 C 130.299 203.93 137.94 208.353 144.402 209.605 C 148.328 210.365 149.059 210.438 152.9 210.448 C 157.647 210.46 160.167 210.117 164.9 208.812 C 173.746 206.374 183.978 198.361 189.394 189.63 C 196.396 178.34 198.503 161.96 194.774 147.8 C 190.439 131.334 176.445 118.683 159.5 115.909 C 144.055 113.38 132.27 118.094 123.147 130.45 C 122.355 131.523 121.593 132.4 121.454 132.4 C 121.252 132.4 121.191 127.167 121.151 106.25 L 121.1 80.1 L 111.644 80.048 C 104.187 80.007 102.169 80.049 102.093 80.248 Z  M 246.2 115.513 C 243.941 115.75 243.004 115.888 240.8 116.31 C 223.319 119.656 208.683 134.437 205.511 151.949 C 200.984 176.944 211.488 198.237 232.7 207.06 C 245.556 212.408 264.089 211.484 277.1 204.847 C 281.968 202.363 290.199 196.119 289.959 195.091 C 289.927 194.951 287.65 192.387 284.9 189.393 C 282.15 186.4 279.828 183.826 279.74 183.675 C 279.45 183.176 279.12 183.385 277.092 185.352 C 269.492 192.725 257.099 195.732 244.735 193.204 C 236.577 191.536 228.12 185.146 225.508 178.677 C 224.316 175.724 223.557 172.034 224.026 171.469 C 224.211 171.245 230.331 171.2 260.324 171.2 L 296.4 171.2 L 296.398 162.45 C 296.396 150.665 295.904 147.03 293.491 140.967 C 286.695 123.897 267.057 113.327 246.2 115.513 Z  M 257.944 132.285 C 269.794 134.893 277.169 143.498 277.196 154.751 L 277.2 156.201 L 250.55 156.151 L 223.9 156.1 L 223.95 154.2 C 224.225 143.887 232.93 134.943 245.152 132.418 C 248.513 131.723 255.082 131.655 257.944 132.285 Z  M 152.008 132.29 C 169.543 134.512 180.714 152.327 176.42 171.224 C 172.472 188.599 152.466 198.489 136.9 190.761 C 129.045 186.861 123.421 179.403 121.623 170.5 C 117.237 148.79 132.339 129.799 152.008 132.29 Z " fill-rule="evenodd" fill="rgb(255,255,255)"/>
        
        <path id="logo_tag" d=" M 121.846 251.05 C 121.735 251.188 121.264 252.11 120.8 253.1 C 120.335 254.09 119.516 255.822 118.978 256.95 C 118.44 258.078 117.56 259.923 117.022 261.05 C 116.484 262.178 115.664 263.91 115.2 264.9 C 114.736 265.89 113.926 267.6 113.4 268.7 C 112.875 269.8 112.019 271.6 111.499 272.7 C 110.978 273.8 110.169 275.51 109.7 276.5 C 109.231 277.49 108.432 279.178 107.924 280.25 C 107.416 281.322 106.585 283.078 106.078 284.15 C 105.57 285.223 104.725 287 104.2 288.1 C 103.674 289.2 102.864 290.91 102.4 291.9 C 101.936 292.89 101.105 294.645 100.554 295.8 C 98.016 301.12 97.592 302.012 96.8 303.7 C 96.336 304.69 95.526 306.4 95 307.5 C 94.475 308.6 93.63 310.378 93.122 311.45 C 92.615 312.523 91.789 314.265 91.287 315.322 C 90.009 318.014 89.537 317.8 96.755 317.8 C 103.975 317.8 103.214 318.07 104.659 315 C 105.255 313.735 106.06 312.025 106.448 311.2 C 108.339 307.18 108.862 306.068 109.624 304.45 C 110.077 303.488 110.786 301.98 111.2 301.1 C 111.614 300.22 112.313 298.735 112.753 297.8 C 113.193 296.865 113.913 295.335 114.353 294.4 C 114.793 293.465 115.513 291.935 115.953 291 C 116.393 290.065 117.123 288.512 117.576 287.55 C 118.029 286.588 118.76 285.035 119.2 284.1 C 119.64 283.165 120.36 281.635 120.8 280.7 C 121.24 279.765 121.96 278.235 122.4 277.3 C 122.84 276.365 123.57 274.813 124.022 273.85 C 124.474 272.887 125.228 271.29 125.699 270.3 C 126.52 268.572 127.324 266.867 129.046 263.2 C 129.485 262.265 130.187 260.78 130.605 259.9 C 131.024 259.02 131.874 257.22 132.494 255.9 C 133.114 254.58 133.878 252.961 134.193 252.302 C 134.507 251.643 134.722 251.036 134.67 250.952 C 134.498 250.674 122.075 250.768 121.846 251.05 Z  M 132.69 252.184 C 132.753 252.285 132.321 253.388 131.731 254.634 C 130.628 256.963 129.873 258.565 128.402 261.7 C 127.937 262.69 127.172 264.31 126.701 265.3 C 126.231 266.29 125.476 267.887 125.023 268.85 C 124.57 269.813 123.83 271.387 123.377 272.35 C 122.924 273.313 122.169 274.91 121.699 275.9 C 121.228 276.89 120.474 278.488 120.022 279.45 C 119.57 280.413 118.84 281.965 118.4 282.9 C 117.96 283.835 117.251 285.343 116.824 286.25 C 116.397 287.157 115.677 288.688 115.224 289.65 C 114.771 290.613 114.029 292.188 113.576 293.15 C 113.123 294.113 112.403 295.643 111.976 296.55 C 111.549 297.457 110.829 298.988 110.376 299.95 C 109.923 300.913 109.214 302.42 108.8 303.3 C 108.386 304.18 107.666 305.71 107.2 306.7 C 106.735 307.69 106.036 309.175 105.648 310 C 105.261 310.825 104.42 312.603 103.779 313.95 L 102.616 316.4 L 97.508 316.4 C 93.259 316.4 92.4 316.353 92.4 316.12 C 92.4 315.965 92.972 314.638 93.672 313.17 C 94.898 310.596 95.621 309.073 97.547 305 C 98.041 303.955 98.875 302.2 99.4 301.1 C 99.926 300 100.736 298.29 101.2 297.3 C 101.664 296.31 102.484 294.578 103.022 293.45 C 103.56 292.322 104.44 290.478 104.978 289.35 C 105.516 288.223 106.336 286.49 106.8 285.5 C 107.264 284.51 108.074 282.8 108.6 281.7 C 109.125 280.6 109.959 278.845 110.454 277.8 C 110.948 276.755 111.768 275.022 112.276 273.95 C 112.784 272.877 113.605 271.145 114.1 270.1 C 114.595 269.055 115.415 267.322 115.922 266.25 C 116.43 265.178 117.275 263.4 117.8 262.3 C 118.326 261.2 119.136 259.49 119.6 258.5 C 121.476 254.5 122.458 252.487 122.649 252.25 C 122.891 251.947 132.505 251.884 132.69 252.184 Z  M 82.3 262.497 C 81.53 262.872 79.865 263.665 78.6 264.26 C 77.335 264.855 75.625 265.66 74.8 266.048 C 73.975 266.436 72.535 267.113 71.6 267.553 C 70.665 267.993 69.135 268.713 68.2 269.153 C 67.265 269.593 65.69 270.333 64.7 270.798 C 63.71 271.263 62.09 272.028 61.1 272.499 C 59.419 273.298 58.301 273.825 54 275.847 C 53.065 276.286 51.49 277.031 50.5 277.501 C 49.51 277.971 48.002 278.685 47.15 279.087 L 45.6 279.818 L 45.6 285.469 L 45.6 291.121 L 47.35 291.948 C 49.024 292.74 51.978 294.132 55.2 295.648 C 57.084 296.534 59.796 297.81 62 298.847 C 62.935 299.287 64.442 299.997 65.35 300.424 C 66.258 300.851 67.765 301.56 68.7 302 C 69.635 302.44 71.142 303.149 72.05 303.576 C 72.958 304.003 74.51 304.734 75.5 305.2 C 76.49 305.666 78.065 306.406 79 306.844 C 79.935 307.282 81.439 307.999 82.342 308.437 C 83.245 308.875 84.077 309.176 84.192 309.105 C 84.329 309.021 84.4 306.921 84.4 302.979 L 84.4 296.981 L 83.871 296.49 C 83.58 296.221 83.267 296 83.176 296 C 83.086 296 81.816 295.428 80.356 294.729 C 78.895 294.029 77.07 293.161 76.3 292.8 C 75.53 292.438 73.82 291.628 72.5 291 C 71.18 290.372 69.47 289.562 68.7 289.2 C 67.93 288.839 66.13 287.985 64.7 287.304 C 63.27 286.623 61.807 285.939 61.45 285.784 C 60.399 285.328 60.621 285.157 64.7 283.287 C 65.58 282.884 66.84 282.304 67.5 281.998 C 68.16 281.692 69.217 281.209 69.849 280.924 C 70.482 280.639 71.652 280.099 72.449 279.725 C 73.247 279.35 74.418 278.809 75.05 278.522 C 76.713 277.767 78.253 277.059 80.3 276.108 C 81.29 275.647 82.571 275.059 83.147 274.801 C 84.476 274.205 84.43 274.483 84.358 267.503 C 84.291 261.064 84.45 261.45 82.3 262.497 Z  M 82.954 268.634 L 82.9 273.468 L 81.892 273.984 C 81.338 274.268 80.303 274.762 79.592 275.082 C 78.882 275.401 77.625 275.974 76.8 276.355 C 75.163 277.11 73.515 277.87 71.5 278.8 C 70.785 279.13 69.615 279.67 68.9 280 C 68.185 280.33 67.015 280.87 66.3 281.2 C 65.585 281.53 64.415 282.07 63.7 282.4 C 62.985 282.73 61.838 283.261 61.15 283.579 C 60.463 283.898 59.478 284.348 58.962 284.579 C 57.561 285.206 57.61 285.316 59.74 286.32 C 60.818 286.829 62.6 287.675 63.7 288.2 C 64.8 288.726 66.51 289.536 67.5 290 C 68.49 290.464 70.2 291.274 71.3 291.8 C 72.4 292.325 74.02 293.092 74.9 293.505 C 79.404 295.618 81.95 296.836 82.4 297.091 L 82.9 297.375 L 82.953 302.287 C 82.987 305.327 82.934 307.2 82.815 307.2 C 82.71 307.2 81.606 306.718 80.362 306.129 C 79.118 305.54 77.425 304.74 76.6 304.352 C 75.775 303.964 74.29 303.265 73.3 302.8 C 72.31 302.334 70.758 301.603 69.85 301.176 C 68.942 300.749 67.458 300.051 66.55 299.624 C 65.642 299.197 64.09 298.466 63.1 298 C 62.11 297.535 60.625 296.836 59.8 296.448 C 58.975 296.06 57.31 295.276 56.1 294.706 C 54.89 294.136 53.144 293.316 52.22 292.885 C 51.295 292.453 49.72 291.695 48.72 291.2 L 46.9 290.3 L 46.846 285.461 L 46.793 280.622 L 48.346 279.889 C 49.201 279.486 50.71 278.771 51.7 278.301 C 52.69 277.831 54.31 277.065 55.3 276.599 C 56.29 276.133 57.91 275.368 58.9 274.899 C 59.89 274.43 61.51 273.666 62.5 273.2 C 63.49 272.734 65.043 272.003 65.95 271.576 C 66.858 271.149 68.365 270.44 69.3 270 C 70.882 269.255 72.209 268.631 76 266.848 C 76.825 266.46 78.49 265.674 79.7 265.102 C 80.91 264.531 82.035 264.011 82.2 263.947 C 83.013 263.634 83.009 263.608 82.954 268.634 Z " fill-rule="evenodd" fill="rgb(97,194,208)"/>
        
        <path id="logo_code" d=" M 252.533 248.533 C 252.46 248.607 252.4 253.602 252.4 259.633 C 252.4 265.665 252.343 270.6 252.273 270.6 C 252.204 270.6 251.616 270.02 250.966 269.312 C 248.996 267.161 246.177 265.316 244.007 264.756 C 236.211 262.744 228.742 265.21 223.314 271.588 C 222.752 272.249 221.2 274.679 221.2 274.899 C 221.2 274.957 221.026 275.386 220.814 275.852 C 218.366 281.226 218.539 289.586 221.218 295.3 C 223.188 299.502 228.29 304.128 232.222 305.279 C 239.721 307.472 246.146 306.124 250.773 301.386 C 252.499 299.618 252.4 299.532 252.4 302.804 L 252.4 305.608 L 256.65 305.554 L 260.9 305.5 L 260.951 277.221 C 260.988 256.488 260.941 248.87 260.776 248.671 C 260.537 248.383 252.813 248.254 252.533 248.533 Z  M 314.8 267.981 L 314.8 274.205 L 316.85 275.175 C 317.978 275.709 319.35 276.348 319.9 276.594 C 320.45 276.84 321.463 277.302 322.15 277.621 C 322.838 277.939 323.985 278.47 324.7 278.8 C 325.415 279.13 326.585 279.67 327.3 280 C 328.015 280.33 329.185 280.87 329.9 281.2 C 333.187 282.717 333.799 282.999 335.3 283.686 C 338.144 284.988 339.08 285.6 338.227 285.6 C 338.113 285.6 336.868 286.149 335.46 286.82 C 334.052 287.492 332.135 288.402 331.2 288.844 C 330.265 289.285 328.668 290.041 327.65 290.523 C 324.963 291.796 322.261 293.076 320.15 294.076 C 319.132 294.558 317.513 295.327 316.55 295.785 L 314.8 296.619 L 314.8 302.91 C 314.8 306.71 314.875 309.2 314.988 309.2 C 315.092 309.2 316.194 308.718 317.438 308.129 C 318.682 307.54 320.375 306.74 321.2 306.352 C 327.089 303.582 328.985 302.69 331.3 301.6 C 334.767 299.968 336.414 299.193 338.15 298.378 C 339.113 297.926 340.71 297.172 341.7 296.701 C 342.69 296.231 344.175 295.529 345 295.143 C 349.693 292.944 351.797 291.942 352.6 291.522 L 353.5 291.052 L 353.553 285.542 L 353.606 280.032 L 353.022 279.616 C 352.701 279.387 352.39 279.2 352.331 279.2 C 352.272 279.2 351.206 278.718 349.962 278.129 C 348.718 277.54 347.025 276.74 346.2 276.352 C 345.375 275.964 343.89 275.265 342.9 274.8 C 341.91 274.334 340.335 273.594 339.4 273.155 C 338.465 272.716 336.89 271.972 335.9 271.501 C 334.91 271.031 333.29 270.265 332.3 269.799 C 331.31 269.333 329.69 268.568 328.7 268.099 C 327.71 267.63 326.09 266.866 325.1 266.4 C 324.11 265.934 322.625 265.236 321.8 264.848 C 320.975 264.46 319.284 263.661 318.042 263.073 C 316.8 262.485 315.563 261.948 315.292 261.88 L 314.8 261.757 L 314.8 267.981 Z  M 317.5 264.203 C 318.05 264.451 319.31 265.036 320.3 265.504 C 321.29 265.971 322.865 266.713 323.8 267.153 C 324.735 267.593 326.288 268.323 327.25 268.776 C 328.213 269.229 329.788 269.971 330.75 270.423 C 331.713 270.876 333.31 271.63 334.3 272.099 C 335.29 272.568 336.91 273.333 337.9 273.799 C 338.89 274.265 340.51 275.031 341.5 275.501 C 342.49 275.971 344.02 276.694 344.9 277.107 C 345.78 277.52 347.518 278.34 348.762 278.929 C 350.006 279.518 351.072 280 351.131 280 C 351.19 280 351.501 280.187 351.823 280.416 L 352.407 280.832 L 352.354 285.549 L 352.3 290.265 L 351 290.924 C 350.285 291.286 348.822 291.992 347.75 292.492 C 346.678 292.991 344.968 293.794 343.95 294.277 C 342.933 294.759 341.335 295.513 340.4 295.953 C 339.465 296.393 337.913 297.123 336.95 297.576 C 335.988 298.029 334.435 298.76 333.5 299.2 C 332.565 299.64 331.035 300.36 330.1 300.8 C 329.165 301.24 327.635 301.96 326.7 302.4 C 323.199 304.047 321.651 304.776 319.9 305.599 C 318.91 306.064 317.746 306.615 317.312 306.823 C 315.933 307.484 316 307.713 316 302.31 L 316 297.419 L 317.75 296.585 C 318.713 296.127 320.31 295.368 321.3 294.9 C 323.393 293.909 326.344 292.511 328.9 291.3 C 329.89 290.831 331.465 290.085 332.4 289.644 C 333.335 289.202 335.27 288.287 336.7 287.609 C 338.13 286.932 339.726 286.181 340.246 285.939 C 341.281 285.459 341.448 285.086 340.75 284.815 C 340.329 284.652 339.258 284.167 336.25 282.777 C 335.563 282.46 334.415 281.93 333.7 281.6 C 332.985 281.27 331.815 280.73 331.1 280.4 C 330.385 280.07 329.215 279.53 328.5 279.2 C 327.785 278.87 326.615 278.33 325.9 278 C 325.185 277.67 324.015 277.13 323.3 276.8 C 322.585 276.47 321.438 275.941 320.75 275.623 C 320.063 275.306 318.713 274.677 317.75 274.225 L 316 273.404 L 316 268.635 C 316 264.208 316.054 263.494 316.378 263.682 C 316.445 263.721 316.95 263.955 317.5 264.203 Z  M 151.6 264.301 C 150.665 264.435 149.495 264.654 149 264.789 C 148.505 264.923 147.851 265.081 147.548 265.139 C 147.244 265.198 146.946 265.326 146.886 265.423 C 146.826 265.52 146.642 265.6 146.478 265.6 C 144.532 265.6 138.528 270.238 136.41 273.376 C 131.511 280.639 131.911 292.05 137.29 298.478 C 139.791 301.467 142.495 303.431 146.3 305.023 C 153.629 308.091 164.636 305.501 170.449 299.342 C 171.118 298.633 171.2 298.782 168.6 296 C 167.445 294.764 166.47 293.674 166.433 293.577 C 166.285 293.184 165.652 293.451 164.8 294.266 C 160.773 298.118 155.808 299.279 150.438 297.625 C 142.783 295.267 139.112 284.697 143.617 277.988 C 148.291 271.026 157.676 270.203 164.855 276.125 C 165.61 276.747 165.709 276.68 167.654 274.238 C 168.59 273.062 169.634 271.785 169.975 271.4 C 170.757 270.515 170.762 270.554 169.75 269.584 C 168.159 268.057 166.061 266.77 162.9 265.381 C 160.358 264.264 155.257 263.776 151.6 264.301 Z  M 191.3 264.222 C 180.011 265.859 172.71 274.098 172.71 285.2 C 172.71 299.22 185.019 308.742 199.3 305.771 C 215.439 302.413 221.346 281.912 209.552 270.191 C 204.869 265.538 197.915 263.263 191.3 264.222 Z  M 282.6 264.214 C 274.408 265.459 268.067 270.578 265.713 277.848 C 264.817 280.616 264.449 286.837 265.016 289.635 C 266.129 295.125 268.202 298.636 272.245 301.882 C 280.32 308.363 293.904 307.648 301.75 300.328 C 302.624 299.512 302.578 299.308 301.18 297.8 C 300.517 297.085 299.517 295.983 298.958 295.35 C 297.737 293.97 297.87 293.984 296.675 295.114 C 289.457 301.931 273.994 298.561 273.551 290.073 L 273.5 289.1 L 289.4 289 L 305.3 288.9 L 305.28 284.1 C 305.257 278.329 305.069 277.337 303.351 273.9 C 301.544 270.285 298.248 267.49 293.3 265.376 C 290.911 264.355 285.522 263.77 282.6 264.214 Z  M 242.24 271.813 C 246.088 272.585 248.955 274.78 250.844 278.4 C 251.482 279.623 251.654 280.101 252.184 282.123 C 252.649 283.897 252.383 288.393 251.7 290.3 C 248.212 300.038 235.666 301.59 229.879 293 C 227.557 289.554 227.029 283.972 228.65 280 C 229.138 278.803 229.33 278.439 230.021 277.4 C 232.858 273.132 237.726 270.907 242.24 271.813 Z  M 288.84 271.876 C 291.867 272.665 294.451 274.581 295.547 276.848 C 296.328 278.464 296.9 280.684 296.771 281.6 L 296.7 282.1 L 285.1 282.1 L 273.5 282.1 L 273.537 280.824 C 273.643 277.127 276.867 273.507 281.2 272.219 C 281.695 272.072 282.325 271.879 282.6 271.792 C 283.449 271.52 287.695 271.578 288.84 271.876 Z  M 196.4 271.999 C 209.794 274.008 211.096 293.835 198.108 298.014 C 196.49 298.535 192.309 298.652 190.897 298.216 C 186.257 296.784 183.173 293.92 181.97 289.926 C 178.83 279.508 186.116 270.456 196.4 271.999 Z " fill-rule="evenodd" fill="rgb(97,194,208)"/>
    </g>
</svg>